<svg version="1.1" id="Layer_1" xmlns="http://www.w3.org/2000/svg" xmlns:xlink="http://www.w3.org/1999/xlink" x="0px" y="0px" viewBox="508.70001220703125 684.7000122070312 978.6000366210938 630.6000366210938" enable-background="new 0 0 2000 2000" xml:space="preserve">
<g>
	<g>
		<path fill="#FFFFFF" d="M708.4,686.7c0-1.3,0.7-2,2-2h72.8c4.9,0,9.3,0.8,13.4,2.4c4.1,1.6,7.7,3.9,10.7,7c3,3,5.4,6.7,7.2,11
			c1.8,4.3,2.6,9.2,2.6,14.6c0,7.3-0.6,13-1.8,17.3c-1.2,4.2-2.6,7.5-4.1,9.7c-1.6,2.2-2.9,3.7-4.1,4.4c-1.2,0.7-1.8,1.3-1.8,1.7
			c0,0.7,1,2.1,3.1,4.2c2.1,2.2,4.4,4.6,7,7.5c0.9,1.2,1.8,2.6,2.5,4.2c0.7,1.6,1.4,3.3,1.9,5c0.5,1.7,0.9,3.4,1.1,5.1
			c0.2,1.7,0.3,3.1,0.3,4.3c0,6.5-0.6,12.5-1.8,18.2c-1.2,5.7-3.3,10.6-6.4,14.8c-3,4.2-7,7.5-12,9.9c-5,2.4-11.3,3.6-19,3.6h-71.6
			c-1.3,0-2-0.7-2-2V686.7z M737.7,740.7c0,1.3,0.7,2,2,2h35c5.4,0,9.2-1.2,11.5-3.5c2.3-2.4,3.4-6.6,3.4-12.8c0-5.8-1.5-9.8-4.4-12
			c-3-2.2-6.5-3.3-10.5-3.3h-35c-1.3,0-2,0.7-2,2V740.7z M737.7,801.3c0,1.3,0.7,2,2,2h42.7c2.3,0,4.2-0.6,5.7-1.8
			c1.5-1.2,2.7-2.7,3.6-4.5c0.9-1.8,1.6-3.7,1.9-5.8c0.3-2,0.5-3.8,0.5-5.3c0-3.1-0.4-5.7-1.1-7.8c-0.7-2.1-1.7-3.7-2.8-5
			c-1.1-1.2-2.4-2.1-3.8-2.5c-1.4-0.5-2.7-0.7-3.9-0.7h-42.7c-1.3,0-2,0.7-2,2V801.3z"></path>
		<path fill="#FFFFFF" d="M891.2,724.3c1.3,0,2,0.7,2,2v20.6c0,1.3-0.7,2-2,2h-19.4c-1.2,0-2.3,0.3-3.2,1c-0.9,0.7-1.8,1.5-2.5,2.3
			c-0.7,0.9-1.3,1.8-1.7,2.8c-0.4,1-0.6,1.9-0.6,2.7v69.7c0,1.3-0.7,2-2,2h-22.6c-1.3,0-2-0.7-2-2v-76.8c0-3.5,0.7-6.9,2.1-10.1
			c1.4-3.2,3.3-6.1,5.8-8.5c2.4-2.4,5.3-4.3,8.5-5.8c3.2-1.4,6.7-2.1,10.3-2.1H891.2z"></path>
		<path fill="#FFFFFF" d="M1006.7,788.8c0,8.1-0.7,14.8-2.1,20c-1.4,5.3-3.6,9.4-6.5,12.5c-2.9,3.1-6.6,5.3-11,6.5
			c-4.4,1.2-9.8,1.8-16,1.8h-36c-6.2,0-11.3-1.1-15.4-3.3c-4-2.2-7.3-5.1-9.7-8.7c-2.4-3.6-4.1-7.6-5.1-12.1
			c-0.9-4.5-1.4-9.1-1.4-13.8V756c0-4.9,0.8-9.2,2.5-13.1c1.7-3.9,3.9-7.2,6.8-10c2.8-2.8,6.2-4.9,10-6.4c3.8-1.5,7.9-2.2,12.2-2.2
			h40.8c3.6,0,7.3,0.7,11,2c3.7,1.3,7,3.3,9.9,6c2.9,2.6,5.3,5.8,7.1,9.5c1.8,3.7,2.7,8,2.7,12.8V788.8z M981.8,759.1
			c0-1.6-0.5-3.1-1.5-4.3c-1-1.3-2.3-2.4-3.9-3.2c-1.6-0.9-3.4-1.5-5.5-1.9c-2-0.4-4-0.6-6.1-0.6h-22c-1.8,0-3.5,0.2-5.3,0.5
			c-1.8,0.3-3.3,0.9-4.8,1.7c-1.4,0.8-2.6,1.9-3.5,3.2c-0.9,1.3-1.4,3-1.4,4.9v32.3c0,2.7,0.6,4.9,1.7,6.7c1.1,1.8,2.6,3.1,4.3,4.1
			c1.7,1,3.6,1.7,5.7,2c2,0.3,3.9,0.5,5.7,0.5h18.6c4.9,0,9.1-1.1,12.6-3.4c3.6-2.3,5.4-5.2,5.4-8.7v-16.2V759.1z"></path>
		<path fill="#FFFFFF" d="M1019.5,805h55.6c1.9,0,3.4-0.3,4.4-0.9c1.1-0.6,1.9-1.4,2.5-2.3c0.6-0.9,1-2,1.1-3.1
			c0.1-1.1,0.2-2.2,0.2-3.1c0-1.7-0.4-3.5-1.3-5.3c-0.9-1.8-2.7-2.6-5.4-2.6h-31.7c-4.9,0-9-0.8-12.3-2.3c-3.4-1.5-6.1-3.7-8.1-6.5
			c-2-2.8-3.5-6.1-4.4-9.9c-0.9-3.8-1.4-8.1-1.4-12.6c0-6.7,0.8-12.2,2.3-16.4c1.5-4.2,3.9-7.4,7.1-9.7c3.2-2.3,7.2-3.8,12.1-4.6
			c4.9-0.8,10.8-1.2,17.7-1.2h43.7c1.3,0,2,0.7,2,2v20.6c0,1.3-0.7,2-2,2h-53c-2.2,0-3.7,0.8-4.6,2.3c-0.9,1.6-1.4,3.3-1.4,5.2
			c0,1.8,0.5,3.5,1.5,5.3c1,1.8,2.5,2.6,4.5,2.6h29.5c5.3,0,9.8,0.6,13.5,1.7c3.8,1.1,6.8,3.1,9.2,5.8c2.4,2.7,4.1,6.4,5.3,11
			c1.1,4.6,1.7,10.5,1.7,17.5c0,2-0.3,4.7-0.9,8c-0.6,3.3-1.7,6.5-3.3,9.7c-1.6,3.2-3.9,5.9-6.8,8.2c-2.9,2.3-6.6,3.4-11.2,3.4
			h-66.1c-1.3,0-2-0.7-2-2V807C1017.4,805.6,1018.1,805,1019.5,805z"></path>
	</g>
	<g>
		<path fill="#FFFFFF" d="M877.4,1035.4c-0.5,3.6-1.2,6.7-2.1,9.2c-0.9,2.5-2.1,4.5-3.7,6.1c-1.6,1.6-3.7,2.7-6.3,3.3
			c-2.6,0.7-5.9,1-9.9,1h-5.7c-2.3,0-4.7-0.2-7.3-0.6c-2.6-0.4-5-1.2-7.2-2.4c-2.2-1.2-4.1-3-5.8-5.4c-1.6-2.4-2.6-5.6-3-9.6
			l-5.5-58.2c-0.1-0.7-0.5-1.1-1.1-1.3c-0.6-0.2-1.1-0.3-1.5-0.3s-0.9,0.1-1.5,0.3c-0.6,0.2-1,0.6-1.1,1.3l-5.5,58.2
			c-0.4,4-1.4,7.2-3,9.6c-1.6,2.4-3.5,4.1-5.8,5.4c-2.2,1.2-4.6,2-7.2,2.4c-2.6,0.4-5,0.6-7.3,0.6h-5.7c-4,0-7.3-0.3-9.9-1
			c-2.6-0.7-4.6-1.8-6.3-3.3c-1.6-1.5-2.9-3.6-3.7-6.1c-0.9-2.5-1.6-5.6-2.1-9.2L747,949.5c0-1.2,0.8-1.8,2.4-1.8h20
			c0.9,0,1.5,0.2,1.8,0.6c0.3,0.4,0.5,0.9,0.6,1.6l9.5,68.7c0.1,0.8,0.5,1.5,1.1,1.9c0.6,0.5,1.2,0.7,1.7,0.7c0.5,0,1.1-0.2,1.7-0.7
			c0.6-0.5,1-1.1,1.1-1.9l5.1-55.6c0.4-3.8,1.3-6.8,2.6-9c1.3-2.2,3.1-3.9,5.2-5.1c2.1-1.1,4.5-1.9,7.2-2.1c2.7-0.3,5.6-0.4,8.7-0.4
			h5.3c3,0,5.8,0.1,8.6,0.4c2.8,0.3,5.2,1,7.3,2.1c2.1,1.1,3.8,2.8,5.2,5.1c1.3,2.2,2.2,5.2,2.6,9l5.1,55.6c0.1,0.8,0.5,1.5,1.1,1.9
			c0.6,0.5,1.2,0.7,1.7,0.7c0.5,0,1.1-0.2,1.7-0.7c0.6-0.5,1-1.1,1.1-1.9l9.5-68.7c0.1-0.7,0.3-1.2,0.6-1.6c0.3-0.4,0.9-0.6,1.8-0.6
			h20c1.6,0,2.4,0.5,2.4,1.4L877.4,1035.4z"></path>
		<path fill="#FFFFFF" d="M906.9,908.1h20.6c1.3,0,2,0.7,2,2v20.6c0,1.3-0.7,2-2,2h-20.6c-1.3,0-2-0.7-2-2v-20.6
			C904.9,908.7,905.5,908.1,906.9,908.1z M904.9,949.7c0-1.3,0.7-2,2-2h20.6c1.3,0,2,0.7,2,2V1051c0,1.3-0.7,2-2,2h-20.6
			c-1.3,0-2-0.7-2-2V949.7z"></path>
		<path fill="#FFFFFF" d="M960.5,974.4v80.7h24.7v-80.7c0-1.3,0.7-2,2-2h16.6c1.3,0,2-0.7,2-2v-20.6c0-1.3-0.7-2-2-2h-16.6
			c-1.3,0-2-0.7-2-2v-35.6c0-1.3-0.7-2-2-2h-20.6c-1.3,0-2,0.7-2,2v35.6c0,1.3-0.7,2-2,2h-15c-1.3,0-2,0.7-2,2v20.6c0,1.3,0.7,2,2,2
			h15C959.8,972.3,960.5,973,960.5,974.4z"></path>
		<path fill="#FFFFFF" d="M1076.2,976.3c-4.6-2.6-10.3-3.9-17.1-3.9c-2.3,0-4.6,0.1-6.9,0.3c-2.3,0.2-4.3,0.6-6.2,1.2
			c-1.8,0.6-3.3,1.5-4.5,2.7c-1.2,1.2-1.8,2.8-1.8,4.7v69.7c0,1.3-0.7,2-2,2H1017c-1.3,0-2-0.7-2-2v-20.6v-0.4V910.1
			c0-1.3,0.7-2,2-2h20.6c1.3,0,2,0.7,2,2v37.6h35.2c4.2,0,8.3,0.8,12.2,2.3c4,1.6,7.5,3.7,10.5,6.5c3,2.8,5.5,6,7.4,9.6
			c1.9,3.6,2.8,7.5,2.8,11.5v73.4c0,1.3-0.7,2-2,2h-20.6c-1.3,0-2-0.7-2-2v-61.9C1083.1,983.2,1080.8,978.9,1076.2,976.3z"></path>
	</g>
	<g>
		<path fill="#FFFFFF" d="M508.7,1133c0-1.3,0.7-2,2-2h72.8c4.9,0,9.3,0.8,13.4,2.4c4.1,1.6,7.7,3.9,10.7,7c3,3,5.4,6.7,7.2,11
			c1.8,4.3,2.6,9.2,2.6,14.6c0,7.3-0.6,13-1.8,17.3c-1.2,4.2-2.6,7.5-4.1,9.7c-1.6,2.2-2.9,3.7-4.1,4.4c-1.2,0.7-1.8,1.3-1.8,1.7
			c0,0.7,1,2.1,3.1,4.2c2.1,2.2,4.4,4.6,7,7.5c0.9,1.2,1.8,2.6,2.5,4.2c0.7,1.6,1.4,3.3,1.9,5c0.5,1.7,0.9,3.4,1.1,5.1
			c0.2,1.7,0.3,3.1,0.3,4.3c0,6.5-0.6,12.5-1.8,18.2c-1.2,5.7-3.3,10.6-6.4,14.8c-3,4.2-7,7.5-12,9.9c-5,2.4-11.3,3.6-19,3.6h-71.6
			c-1.3,0-2-0.7-2-2V1133z M538,1187c0,1.3,0.7,2,2,2h35c5.4,0,9.2-1.2,11.5-3.5c2.3-2.4,3.4-6.6,3.4-12.8c0-5.8-1.5-9.8-4.4-12
			c-3-2.2-6.5-3.3-10.5-3.3h-35c-1.3,0-2,0.7-2,2V1187z M538,1247.6c0,1.3,0.7,2,2,2h42.7c2.3,0,4.2-0.6,5.7-1.8
			c1.5-1.2,2.7-2.7,3.6-4.5c0.9-1.8,1.6-3.7,1.9-5.8c0.3-2,0.5-3.8,0.5-5.3c0-3.1-0.4-5.7-1.1-7.8c-0.7-2.1-1.7-3.7-2.8-5
			c-1.1-1.2-2.4-2.1-3.8-2.5c-1.4-0.5-2.7-0.7-3.9-0.7H540c-1.3,0-2,0.7-2,2V1247.6z"></path>
		<path fill="#FFFFFF" d="M644.8,1170.6h57c5.1,0,9.5,1.1,13,3.3c3.6,2.2,6.5,5.1,8.7,8.6c2.2,3.5,3.8,7.4,4.9,11.7
			c1,4.3,1.5,8.6,1.5,12.9v66.7c0,1.3-0.7,2-2,2h-70.5c-4,0-7.3-1.2-9.9-3.7c-2.6-2.5-4.5-5.4-6-8.8c-1.4-3.4-2.4-6.7-2.9-10.1
			c-0.5-3.4-0.8-5.9-0.8-7.7c0-3.2,0.4-6.8,1.2-10.7c0.8-3.9,2.1-7.5,3.8-10.8c1.8-3.3,4-6.1,6.9-8.4c2.8-2.3,6.3-3.4,10.3-3.4h33.8
			c3.5,0,6.3-0.8,8.4-2.5c2.1-1.7,3.1-3.7,3.1-6c0-1.9-0.7-3.8-2-5.7c-1.3-1.9-3.1-2.8-5.3-2.8h-53.2c-1.3,0-2-0.7-2-2v-20.6
			C642.8,1171.3,643.4,1170.6,644.8,1170.6z M703.2,1252.2c1.3,0,2-0.7,2-2v-12.1c0-1.3-0.7-2-2-2h-36c-1.9,0-3.4,0.8-4.6,2.3
			c-1.2,1.6-1.8,3.3-1.8,5.2c0,2.3,0.7,4.3,2,6.1c1.3,1.8,3.2,2.6,5.7,2.6H703.2z"></path>
		<path fill="#FFFFFF" d="M772.7,1269.4c0,4.3-1.9,6.5-5.7,6.5h-13.5c-1.9,0-3.3-0.8-4.1-2.4c-0.9-1.6-1.3-3.5-1.3-5.7v-83.9
			c0-3.4,1.4-6.4,4.1-9.2c2.8-2.8,6.3-4.1,10.6-4.1h45.7c4.9,0,9.4,1,13.5,2.9c4.2,2,7.8,4.5,11,7.8c3.2,3.2,5.6,6.9,7.4,11.1
			c1.8,4.2,2.6,8.5,2.6,12.9v68.5c0,1.3-0.7,2-2.2,2h-20.4c-1.3,0-2-0.7-2-2v-64.3c0-3.4-0.5-6.1-1.5-8.3c-1-2.2-2.4-3.8-4.2-5.1
			c-1.8-1.2-3.9-2.1-6.4-2.5c-2.4-0.5-5.1-0.7-7.9-0.7h-19.6c-1.5,0-2.9,0.5-4.1,1.6c-1.3,1.1-1.9,2.2-1.9,3.4V1269.4z"></path>
		<path fill="#FFFFFF" d="M866.4,1170.6h20.6c1.3,0,2,0.7,2,2v115c0,8.6-2.2,15.4-6.5,20.4c-1.5,1.7-3.5,3.4-6.2,5
			c-2.6,1.5-7.1,2.3-13.4,2.3h-14.8c-1.3,0-2-0.7-2-2v-20.6c0-1.3,0.7-2,2-2h9.5c2.3,0,4-0.7,5.1-2.2c1.1-1.5,1.6-3.4,1.6-5.7
			v-110.2C864.4,1171.3,865.1,1170.6,866.4,1170.6z M866.4,1131h20.6c1.3,0,2,0.7,2,2v20.6c0,1.3-0.7,2-2,2h-20.6c-1.3,0-2-0.7-2-2
			V1133C864.4,1131.6,865.1,1131,866.4,1131z"></path>
		<path fill="#FFFFFF" d="M1003.5,1235.1c0,8.1-0.7,14.8-2.1,20c-1.4,5.3-3.6,9.4-6.5,12.5c-2.9,3.1-6.6,5.3-11,6.5
			c-4.4,1.2-9.8,1.8-16,1.8h-36c-6.2,0-11.3-1.1-15.4-3.3c-4-2.2-7.3-5.1-9.7-8.7c-2.4-3.6-4.1-7.6-5.1-12.1
			c-0.9-4.5-1.4-9.1-1.4-13.8v-35.6c0-4.9,0.8-9.2,2.5-13.1c1.7-3.9,3.9-7.2,6.8-10c2.8-2.8,6.2-4.9,10-6.4
			c3.8-1.5,7.9-2.2,12.2-2.2h40.8c3.6,0,7.3,0.7,11,2c3.7,1.3,7,3.3,9.9,6c2.9,2.6,5.3,5.8,7.1,9.5c1.8,3.7,2.7,8,2.7,12.8V1235.1z
			 M978.6,1205.4c0-1.6-0.5-3.1-1.5-4.3c-1-1.3-2.3-2.4-3.9-3.2c-1.6-0.9-3.4-1.5-5.5-1.9s-4-0.6-6.1-0.6h-22
			c-1.8,0-3.5,0.2-5.3,0.5c-1.8,0.3-3.3,0.9-4.8,1.7c-1.4,0.8-2.6,1.9-3.5,3.2c-0.9,1.3-1.4,3-1.4,4.9v32.3c0,2.7,0.6,4.9,1.7,6.7
			c1.1,1.8,2.6,3.1,4.3,4.1c1.7,1,3.6,1.7,5.7,2c2,0.3,3.9,0.5,5.7,0.5h18.6c4.9,0,9.1-1.1,12.6-3.4c3.6-2.3,5.4-5.2,5.4-8.7v-16.2
			V1205.4z"></path>
		<path fill="#FFFFFF" d="M1019.5,1251.2h55.6c1.9,0,3.4-0.3,4.4-0.9c1.1-0.6,1.9-1.4,2.5-2.3c0.6-0.9,1-2,1.1-3.1
			c0.1-1.1,0.2-2.2,0.2-3.1c0-1.7-0.4-3.5-1.3-5.3c-0.9-1.8-2.7-2.6-5.4-2.6h-31.7c-4.9,0-9-0.8-12.3-2.3c-3.4-1.5-6.1-3.7-8.1-6.5
			c-2-2.8-3.5-6.1-4.4-9.9c-0.9-3.8-1.4-8.1-1.4-12.6c0-6.7,0.8-12.2,2.3-16.4c1.5-4.2,3.9-7.4,7.1-9.7c3.2-2.3,7.2-3.8,12.1-4.6
			c4.9-0.8,10.8-1.2,17.7-1.2h43.7c1.3,0,2,0.7,2,2v20.6c0,1.3-0.7,2-2,2h-53c-2.2,0-3.7,0.8-4.6,2.3c-0.9,1.6-1.4,3.3-1.4,5.2
			c0,1.8,0.5,3.5,1.5,5.3c1,1.8,2.5,2.6,4.5,2.6h29.5c5.3,0,9.8,0.6,13.5,1.7c3.8,1.1,6.8,3.1,9.2,5.8c2.4,2.7,4.1,6.4,5.3,11
			c1.1,4.6,1.7,10.5,1.7,17.5c0,2-0.3,4.7-0.9,8c-0.6,3.3-1.7,6.5-3.3,9.7c-1.6,3.2-3.9,5.9-6.8,8.2c-2.9,2.3-6.6,3.4-11.2,3.4
			h-66.1c-1.3,0-2-0.7-2-2v-20.6C1017.4,1251.9,1018.1,1251.2,1019.5,1251.2z"></path>
	</g>
	<g>
		<g>
			<path fill="#FFFFFF" d="M1231.3,1175.6c-43.8,0-79.4-35.6-79.4-79.4s35.6-79.4,79.4-79.4c43.8,0,79.4,35.6,79.4,79.4
				S1275.1,1175.6,1231.3,1175.6z M1231.3,1045.2c-28.1,0-50.9,22.9-50.9,50.9s22.9,50.9,50.9,50.9s50.9-22.9,50.9-50.9
				S1259.4,1045.2,1231.3,1045.2z"></path>
			<path fill="#FFFFFF" d="M1254.2,724.3c-2,0-7.8,0-13.9,0c0,0-9.4,0-18,0c-6.1,0-11.9,0-13.9,0c-4.8,0-4.2,6.2-4.2,6.2
				s0,48.6,0,59.5c0,10.9,8.4,10.9,8.4,10.9l-8.4,228.3h18h18h18l-8.4-228.3c0,0,8.4,0,8.4-10.9c0-10.9,0-59.5,0-59.5
				S1259,724.3,1254.2,724.3z"></path>
			<g>
				<rect x="1181" y="731.1" fill="#FFFFFF" width="97.1" height="8.5"></rect>
				<ellipse fill="#FFFFFF" cx="1283.8" cy="735.4" rx="11.6" ry="10.8"></ellipse>
				<ellipse fill="#FFFFFF" cx="1178.8" cy="735.4" rx="11.6" ry="10.8"></ellipse>
			</g>
			<g>
				<rect x="1181" y="757.2" fill="#FFFFFF" width="97.1" height="8.5"></rect>
				<ellipse fill="#FFFFFF" cx="1283.8" cy="761.4" rx="11.6" ry="10.8"></ellipse>
				<ellipse fill="#FFFFFF" cx="1178.8" cy="761.4" rx="11.6" ry="10.8"></ellipse>
			</g>
			<g>
				<rect x="1181" y="783.2" fill="#FFFFFF" width="97.1" height="8.5"></rect>
				<ellipse fill="#FFFFFF" cx="1283.8" cy="787.4" rx="11.6" ry="10.8"></ellipse>
				<ellipse fill="#FFFFFF" cx="1178.8" cy="787.4" rx="11.6" ry="10.8"></ellipse>
			</g>
			<rect x="1196.9" y="1089.5" fill="#FFFFFF" width="68.7" height="13.3"></rect>
			<g>
				<rect x="1208.6" y="1045.7" fill="#FFFFFF" width="5.4" height="99.9"></rect>
				<rect x="1228.6" y="1041.1" fill="#FFFFFF" width="5.4" height="112.3"></rect>
				<rect x="1248.5" y="1045.7" fill="#FFFFFF" width="5.4" height="99.9"></rect>
			</g>
		</g>
		<path fill="#FFFFFF" d="M1487.3,890.2c0-37.7-13.4-72.5-35.9-100.5c-20.9-26-49.2-45.2-81-56.1c-13.1-4.5-26.8-7.6-40.9-9.3h-22.8
			v80.8h17.1v0c43.4,7.1,76.4,42.6,76.4,85.1c0,41-30.7,75.5-71.8,84.3v50.2c41.1,8.8,71.8,43.2,71.8,84.3c0,20-7.3,38.4-19.6,53.1
			c-16.9,20.3-43,32-70.5,32.9l-158.7-0.1v81.9l156.4-0.5c56.3-0.3,109.8-24.6,143.6-66.7c22.5-28,35.9-62.8,35.9-100.5
			c0-41.7-16.4-80-43.5-109.3C1470.9,970.2,1487.3,931.9,1487.3,890.2z"></path>
	</g>
</g>
</svg>
